<svg width="24" height="24" viewBox="0 0 24 24" fill="none" xmlns="http://www.w3.org/2000/svg">
<path d="M15 16.9995V17.9995C15 19.6564 13.6569 20.9995 12 20.9995C10.3431 20.9995 9 19.6564 9 17.9995V16.9995M15 16.9995H9M15 16.9995H18.5905C18.973 16.9995 19.1652 16.9995 19.3201 16.9473C19.616 16.8475 19.8475 16.6152 19.9473 16.3193C19.9997 16.1638 19.9997 15.971 19.9997 15.5854C19.9997 15.4167 19.9995 15.3324 19.9863 15.252C19.9614 15.1 19.9024 14.9558 19.8126 14.8307C19.7651 14.7646 19.7048 14.7043 19.5858 14.5853L19.1963 14.1958C19.0706 14.0701 19 13.8996 19 13.7219V9.99951C19 6.13351 15.866 2.9995 12 2.99951C8.13401 2.99952 5 6.13353 5 9.99951V13.7219C5 13.8997 4.92924 14.0701 4.80357 14.1958L4.41406 14.5853C4.29476 14.7046 4.23504 14.7646 4.1875 14.8308C4.09766 14.9559 4.03815 15.0999 4.0132 15.252C4 15.3324 4 15.4167 4 15.5855C4 15.971 4 16.1638 4.05245 16.3193C4.15225 16.6151 4.3848 16.8475 4.68066 16.9473C4.83556 16.9995 5.02701 16.9995 5.40956 16.9995H9" stroke="#111827" stroke-width="2" stroke-linecap="round" stroke-linejoin="round"/>
</svg>
