<svg xmlns="http://www.w3.org/2000/svg" width="24" height="24" viewBox="0 0 24 24" fill="none">
  <path d="M15 16.9996V17.9996C15 19.6565 13.6569 20.9996 12 20.9996C10.3431 20.9996 9 19.6565 9 17.9996V16.9996M15 16.9996H9M15 16.9996H18.5905C18.973 16.9996 19.1652 16.9996 19.3201 16.9474C19.616 16.8476 19.8475 16.6153 19.9473 16.3194C19.9997 16.1639 19.9997 15.9711 19.9997 15.5856C19.9997 15.4169 19.9995 15.3325 19.9863 15.2521C19.9614 15.1001 19.9024 14.956 19.8126 14.8308C19.7651 14.7647 19.7048 14.7044 19.5858 14.5855L19.1963 14.1959C19.0706 14.0702 19 13.8998 19 13.722V9.99963C19 6.13363 15.866 2.99962 12 2.99963C8.13401 2.99964 5 6.13365 5 9.99963V13.7221C5 13.8998 4.92924 14.0702 4.80357 14.1959L4.41406 14.5854C4.29476 14.7047 4.23504 14.7647 4.1875 14.8309C4.09766 14.956 4.03815 15.1001 4.0132 15.2521C4 15.3325 4 15.4169 4 15.5856C4 15.9711 4 16.1639 4.05245 16.3194C4.15225 16.6152 4.3848 16.8476 4.68066 16.9474C4.83556 16.9996 5.02701 16.9996 5.40956 16.9996H9" stroke="#111827" stroke-width="2" stroke-linecap="round" stroke-linejoin="round"/>
</svg>