<svg xmlns="http://www.w3.org/2000/svg" width="24" height="24" viewBox="0 0 24 24" fill="none">
    <path d="M13 3.00209C12.9045 3.00122 12.7973 3.00122 12.6747 3.00122H8.2002C7.08009 3.00122 6.51962 3.00122 6.0918 3.21921C5.71547 3.41095 5.40973 3.71669 5.21799 4.09302C5 4.52084 5 5.08131 5 6.20142V17.8014C5 18.9215 5 19.4813 5.21799 19.9091C5.40973 20.2854 5.71547 20.5917 6.0918 20.7834C6.51921 21.0012 7.079 21.0012 8.19694 21.0012L15.8031 21.0012C16.921 21.0012 17.48 21.0012 17.9074 20.7834C18.2837 20.5917 18.5905 20.2854 18.7822 19.9091C19 19.4817 19 18.9227 19 17.8048V9.3269C19 9.20418 19 9.09683 18.9991 9.00122M13 3.00209C13.2856 3.00469 13.4663 3.01507 13.6388 3.05648C13.8429 3.10547 14.0379 3.18649 14.2168 3.29614C14.4186 3.41979 14.5918 3.59304 14.9375 3.93872L18.063 7.0642C18.4089 7.41011 18.5809 7.58258 18.7046 7.78441C18.8142 7.96336 18.8953 8.15848 18.9443 8.36255C18.9857 8.53498 18.9963 8.71573 18.9991 9.00122M13 3.00209V5.80122C13 6.92133 13 7.48099 13.218 7.90881C13.4097 8.28514 13.7155 8.5917 14.0918 8.78345C14.5192 9.00122 15.079 9.00122 16.1969 9.00122H18.9991M18.9991 9.00122H19.0002" stroke="#111827" stroke-width="2" stroke-linecap="round" stroke-linejoin="round"/>
</svg>