<svg width="24" height="24" viewBox="0 0 24 24" fill="none" xmlns="http://www.w3.org/2000/svg">
<path d="M4 8.99951H20M4 8.99951V17.7997C4 18.9198 4 19.4796 4.21799 19.9074C4.40973 20.2837 4.71547 20.59 5.0918 20.7817C5.5192 20.9995 6.07899 20.9995 7.19691 20.9995H16.8031C17.921 20.9995 18.48 20.9995 18.9074 20.7817C19.2837 20.59 19.5905 20.2837 19.7822 19.9074C20 19.48 20 18.921 20 17.8031V8.99951M4 8.99951V8.19971C4 7.0796 4 6.51913 4.21799 6.09131C4.40973 5.71498 4.71547 5.40925 5.0918 5.2175C5.51962 4.99951 6.08009 4.99951 7.2002 4.99951H8M20 8.99951V8.19642C20 7.07851 20 6.51871 19.7822 6.09131C19.5905 5.71498 19.2837 5.40925 18.9074 5.2175C18.4796 4.99951 17.9203 4.99951 16.8002 4.99951H16M16 2.99951V4.99951M16 4.99951H8M8 2.99951V4.99951" stroke="#111827" stroke-width="2" stroke-linecap="round" stroke-linejoin="round"/>
</svg>
