<svg xmlns="http://www.w3.org/2000/svg" width="24" height="24" viewBox="0 0 24 24" fill="none">
  <path d="M4 8.99963H20M4 8.99963V17.7998C4 18.9199 4 19.4797 4.21799 19.9075C4.40973 20.2838 4.71547 20.5901 5.0918 20.7819C5.5192 20.9996 6.07899 20.9996 7.19691 20.9996H16.8031C17.921 20.9996 18.48 20.9996 18.9074 20.7819C19.2837 20.5901 19.5905 20.2838 19.7822 19.9075C20 19.4801 20 18.9211 20 17.8032V8.99963M4 8.99963V8.19983C4 7.07972 4 6.51925 4.21799 6.09143C4.40973 5.71511 4.71547 5.40937 5.0918 5.21762C5.51962 4.99963 6.08009 4.99963 7.2002 4.99963H8M20 8.99963V8.19654C20 7.07863 20 6.51884 19.7822 6.09143C19.5905 5.71511 19.2837 5.40937 18.9074 5.21762C18.4796 4.99963 17.9203 4.99963 16.8002 4.99963H16M16 2.99963V4.99963M16 4.99963H8M8 2.99963V4.99963" stroke="#111827" stroke-width="2" stroke-linecap="round" stroke-linejoin="round"/>
</svg>