<svg width="24" height="24" viewBox="0 0 24 24" fill="none" xmlns="http://www.w3.org/2000/svg">
<path d="M8 5.00122H7.2002C6.08009 5.00122 5.51962 5.00122 5.0918 5.21921C4.71547 5.41095 4.40973 5.71669 4.21799 6.09302C4 6.52084 4 7.08131 4 8.20142V9.00122M8 5.00122H16M8 5.00122V3.00122M16 5.00122H16.8002C17.9203 5.00122 18.4796 5.00122 18.9074 5.21921C19.2837 5.41095 19.5905 5.71669 19.7822 6.09302C20 6.52042 20 7.08021 20 8.19813V9.00122M16 5.00122V3.00122M4 9.00122V17.8014C4 18.9215 4 19.4813 4.21799 19.9091C4.40973 20.2854 4.71547 20.5917 5.0918 20.7834C5.5192 21.0012 6.07899 21.0012 7.19691 21.0012H16.8031C17.921 21.0012 18.48 21.0012 18.9074 20.7834C19.2837 20.5917 19.5905 20.2854 19.7822 19.9091C20 19.4817 20 18.9227 20 17.8048V9.00122M4 9.00122H20M16 17.0012H16.002L16.002 17.0032L16 17.0032V17.0012ZM12 17.0012H12.002L12.002 17.0032L12 17.0032V17.0012ZM8 17.0012H8.002L8.00195 17.0032L8 17.0032V17.0012ZM16.002 13.0012V13.0032L16 13.0032V13.0012H16.002ZM12 13.0012H12.002L12.002 13.0032L12 13.0032V13.0012ZM8 13.0012H8.002L8.00195 13.0032L8 13.0032V13.0012Z" stroke="#111827" stroke-width="2" stroke-linecap="round" stroke-linejoin="round"/>
</svg>
