<svg xmlns="http://www.w3.org/2000/svg" width="24" height="24" viewBox="0 0 24 24" fill="none">
  <path d="M8 5.00128H7.2002C6.08009 5.00128 5.51962 5.00128 5.0918 5.21927C4.71547 5.41102 4.40973 5.71675 4.21799 6.09308C4 6.5209 4 7.08137 4 8.20148V9.00128M8 5.00128H16M8 5.00128V3.00128M16 5.00128H16.8002C17.9203 5.00128 18.4796 5.00128 18.9074 5.21927C19.2837 5.41102 19.5905 5.71675 19.7822 6.09308C20 6.52048 20 7.08028 20 8.19819V9.00128M16 5.00128V3.00128M4 9.00128V17.8015C4 18.9216 4 19.4813 4.21799 19.9092C4.40973 20.2855 4.71547 20.5918 5.0918 20.7835C5.5192 21.0013 6.07899 21.0013 7.19691 21.0013H16.8031C17.921 21.0013 18.48 21.0013 18.9074 20.7835C19.2837 20.5918 19.5905 20.2855 19.7822 19.9092C20 19.4818 20 18.9228 20 17.8049V9.00128M4 9.00128H20M16 17.0013H16.002L16.002 17.0033L16 17.0032V17.0013ZM12 17.0013H12.002L12.002 17.0033L12 17.0032V17.0013ZM8 17.0013H8.002L8.00195 17.0033L8 17.0032V17.0013ZM16.002 13.0013V13.0033L16 13.0032V13.0013H16.002ZM12 13.0013H12.002L12.002 13.0033L12 13.0032V13.0013ZM8 13.0013H8.002L8.00195 13.0033L8 13.0032V13.0013Z" stroke="#111827" stroke-width="2" stroke-linecap="round" stroke-linejoin="round"/>
</svg>