<svg xmlns="http://www.w3.org/2000/svg" width="24" height="24" viewBox="0 0 24 24" fill="none">
    <path d="M16 8.00128H20C20.5523 8.00128 21 8.449 21 9.00128V20.0013L17.667 17.2322C17.4875 17.0831 17.2608 17.0013 17.0273 17.0013H9C8.44771 17.0013 8 16.5536 8 16.0013V13.0013M16 8.00128V5.00128C16 4.449 15.5523 4.00128 15 4.00128H4C3.44772 4.00128 3 4.449 3 5.00128V16.0016L6.33301 13.2321C6.51255 13.0829 6.73924 13.0013 6.97266 13.0013H8M16 8.00128V12.0013C16 12.5536 15.5523 13.0013 15 13.0013H8" stroke="#111827" stroke-width="2" stroke-linecap="round" stroke-linejoin="round"/>
</svg>