<svg width="24" height="24" viewBox="0 0 24 24" fill="none" xmlns="http://www.w3.org/2000/svg">
<path d="M16 8.00122H20C20.5523 8.00122 21 8.44894 21 9.00122V20.0012L17.667 17.2322C17.4875 17.083 17.2608 17.0012 17.0273 17.0012H9C8.44771 17.0012 8 16.5535 8 16.0012V13.0012M16 8.00122V5.00122C16 4.44894 15.5523 4.00122 15 4.00122H4C3.44772 4.00122 3 4.44894 3 5.00122V16.0015L6.33301 13.232C6.51255 13.0829 6.73924 13.0012 6.97266 13.0012H8M16 8.00122V12.0012C16 12.5535 15.5523 13.0012 15 13.0012H8" stroke="#111827" stroke-width="2" stroke-linecap="round" stroke-linejoin="round"/>
</svg>
