<svg width="24" height="24" viewBox="0 0 24 24" fill="none" xmlns="http://www.w3.org/2000/svg">
<path d="M6.00049 6.00073V17.8007C6.00049 18.9208 6.00049 19.4805 6.21848 19.9083C6.41022 20.2846 6.71596 20.5912 7.09229 20.783C7.51969 21.0007 8.07948 21.0007 9.1974 21.0007H14.8036C15.9215 21.0007 16.4805 21.0007 16.9079 20.783C17.2842 20.5912 17.591 20.2846 17.7827 19.9083C18.0005 19.4809 18.0005 18.9217 18.0005 17.8038V6.00073M6.00049 6.00073H8.00049M6.00049 6.00073H4.00049M8.00049 6.00073H16.0005M8.00049 6.00073C8.00049 5.06885 8.00049 4.60314 8.15273 4.2356C8.35572 3.74554 8.74481 3.35596 9.23486 3.15297C9.60241 3.00073 10.0686 3.00073 11.0005 3.00073H13.0005C13.9324 3.00073 14.3983 3.00073 14.7659 3.15297C15.2559 3.35596 15.6452 3.74554 15.8481 4.2356C16.0004 4.60314 16.0005 5.06885 16.0005 6.00073M16.0005 6.00073H18.0005M18.0005 6.00073H20.0005" stroke="#111827" stroke-width="2" stroke-linecap="round" stroke-linejoin="round"/>
</svg>
