<svg xmlns="http://www.w3.org/2000/svg" width="24" height="24" viewBox="0 0 24 24" fill="none">
    <path d="M6.00049 6.00079V17.8008C6.00049 18.9209 6.00049 19.4806 6.21848 19.9084C6.41022 20.2847 6.71596 20.5913 7.09229 20.783C7.51969 21.0008 8.07948 21.0008 9.1974 21.0008H14.8036C15.9215 21.0008 16.4805 21.0008 16.9079 20.783C17.2842 20.5913 17.591 20.2847 17.7827 19.9084C18.0005 19.481 18.0005 18.9218 18.0005 17.8039V6.00079M6.00049 6.00079H8.00049M6.00049 6.00079H4.00049M8.00049 6.00079H16.0005M8.00049 6.00079C8.00049 5.06891 8.00049 4.6032 8.15273 4.23566C8.35572 3.7456 8.74481 3.35602 9.23486 3.15303C9.60241 3.00079 10.0686 3.00079 11.0005 3.00079H13.0005C13.9324 3.00079 14.3983 3.00079 14.7659 3.15303C15.2559 3.35602 15.6452 3.7456 15.8481 4.23566C16.0004 4.6032 16.0005 5.06891 16.0005 6.00079M16.0005 6.00079H18.0005M18.0005 6.00079H20.0005" stroke="#111827" stroke-width="2" stroke-linecap="round" stroke-linejoin="round"/>
</svg>