<svg xmlns="http://www.w3.org/2000/svg" width="24" height="24" viewBox="0 0 24 24" fill="none">
    <path d="M20 5.41074C20 4.85068 19.9996 4.57045 19.8906 4.35654C19.7948 4.16837 19.6423 4.01551 19.4542 3.91963C19.2403 3.81064 18.9597 3.81064 18.3996 3.81064H5.59961C5.03956 3.81064 4.75981 3.81064 4.5459 3.91963C4.35774 4.01551 4.20487 4.16837 4.10899 4.35654C4 4.57045 4 4.85068 4 5.41074V6.14799C4 6.39259 4 6.51497 4.02763 6.63006C4.05213 6.7321 4.09263 6.82956 4.14746 6.91904C4.20928 7.01992 4.29591 7.10655 4.46875 7.27939L9.53149 12.3421C9.70443 12.5151 9.79044 12.6011 9.85228 12.702C9.90711 12.7915 9.94816 12.8893 9.97266 12.9913C10 13.1052 10 13.2262 10 13.4658V18.2216C10 19.0789 10 19.5077 10.1805 19.7659C10.3382 19.9913 10.5814 20.1416 10.8535 20.1818C11.1651 20.2279 11.5487 20.0364 12.3154 19.653L13.1154 19.253C13.4365 19.0925 13.5966 19.0119 13.7139 18.8922C13.8176 18.7863 13.897 18.6591 13.9453 18.519C14 18.3605 14 18.1806 14 17.8216V13.4732C14 13.2286 14 13.1064 14.0276 12.9913C14.0521 12.8893 14.0926 12.7915 14.1475 12.702C14.2089 12.6017 14.2947 12.516 14.4653 12.3453L14.4688 12.3421L19.5315 7.27939C19.7044 7.10644 19.7904 7.01995 19.8523 6.91904C19.9071 6.82956 19.9482 6.7321 19.9727 6.63006C20 6.51615 20 6.39508 20 6.15544V5.41074Z" stroke="#111827" stroke-width="2" stroke-linecap="round" stroke-linejoin="round"/>
</svg>