<svg width="24" height="24" viewBox="0 0 24 24" fill="none" xmlns="http://www.w3.org/2000/svg">
<path d="M20 5.41064C20 4.85059 19.9996 4.57036 19.8906 4.35645C19.7948 4.16828 19.6423 4.01541 19.4542 3.91954C19.2403 3.81055 18.9597 3.81055 18.3996 3.81055H5.59961C5.03956 3.81055 4.75981 3.81055 4.5459 3.91954C4.35774 4.01541 4.20487 4.16828 4.10899 4.35645C4 4.57036 4 4.85059 4 5.41064V6.1479C4 6.39249 4 6.51488 4.02763 6.62997C4.05213 6.73201 4.09263 6.82947 4.14746 6.91895C4.20928 7.01983 4.29591 7.10645 4.46875 7.2793L9.53149 12.342C9.70443 12.515 9.79044 12.601 9.85228 12.7019C9.90711 12.7914 9.94816 12.8892 9.97266 12.9912C10 13.1051 10 13.2261 10 13.4657V18.2215C10 19.0788 10 19.5076 10.1805 19.7658C10.3382 19.9912 10.5814 20.1415 10.8535 20.1817C11.1651 20.2278 11.5487 20.0363 12.3154 19.6529L13.1154 19.2529C13.4365 19.0924 13.5966 19.0118 13.7139 18.8921C13.8176 18.7862 13.897 18.659 13.9453 18.5189C14 18.3604 14 18.1805 14 17.8215V13.4731C14 13.2286 14 13.1063 14.0276 12.9912C14.0521 12.8892 14.0926 12.7914 14.1475 12.7019C14.2089 12.6017 14.2947 12.5159 14.4653 12.3452L14.4688 12.342L19.5315 7.2793C19.7044 7.10635 19.7904 7.01986 19.8523 6.91895C19.9071 6.82947 19.9482 6.73201 19.9727 6.62997C20 6.51606 20 6.39498 20 6.15535V5.41064Z" stroke="#111827" stroke-width="2" stroke-linecap="round" stroke-linejoin="round"/>
</svg>
