<svg width="24" height="24" viewBox="0 0 24 24" fill="none" xmlns="http://www.w3.org/2000/svg">
<path d="M4 11.6246V16.9725C4 18.0926 4 18.6531 4.21799 19.0809C4.40973 19.4572 4.71547 19.7629 5.0918 19.9547C5.5192 20.1724 6.07899 20.1724 7.19691 20.1724H16.8031C17.921 20.1724 18.48 20.1724 18.9074 19.9547C19.2837 19.7629 19.5905 19.4572 19.7822 19.0809C20 18.6535 20 18.0939 20 16.976V11.6246C20 11.0903 19.9995 10.8229 19.9346 10.5743C19.877 10.354 19.7825 10.1454 19.6546 9.957C19.5102 9.74438 19.3096 9.56805 18.9074 9.21619L14.1074 5.01619C13.3608 4.3629 12.9875 4.03643 12.5674 3.91218C12.1972 3.80271 11.8026 3.80271 11.4324 3.91218C11.0126 4.03633 10.6398 4.3625 9.89436 5.0148L5.09277 9.21619C4.69064 9.56806 4.49004 9.74438 4.3457 9.95701C4.21779 10.1454 4.12255 10.354 4.06497 10.5743C4 10.8229 4 11.0902 4 11.6246Z" stroke="#111827" stroke-width="2" stroke-linecap="round" stroke-linejoin="round"/>
</svg>
