<svg xmlns="http://www.w3.org/2000/svg" width="24" height="24" viewBox="0 0 24 24" fill="none">
    <path d="M11.9998 15L14.9998 12M14.9998 12L11.9998 9M14.9998 12H3.99976M8.99976 7.24859V7.2002C8.99976 6.08009 8.99976 5.51962 9.21774 5.0918C9.40949 4.71547 9.71523 4.40973 10.0916 4.21799C10.5194 4 11.0798 4 12.2 4H16.8C17.9201 4 18.4793 4 18.9072 4.21799C19.2835 4.40973 19.5902 4.71547 19.782 5.0918C19.9998 5.5192 19.9998 6.07899 19.9998 7.19691V16.8036C19.9998 17.9215 19.9998 18.4805 19.782 18.9079C19.5902 19.2842 19.2835 19.5905 18.9072 19.7822C18.4797 20 17.9208 20 16.8028 20H12.1967C11.0787 20 10.519 20 10.0916 19.7822C9.71523 19.5905 9.40949 19.2839 9.21774 18.9076C8.99976 18.4798 8.99976 17.9201 8.99976 16.8V16.75" stroke="#111827" stroke-width="2" stroke-linecap="round" stroke-linejoin="round"/>
</svg>