<svg xmlns="http://www.w3.org/2000/svg" width="24" height="24" viewBox="0 0 24 24" fill="none">
    <path d="M5.59961 19.4618L7.12357 18.2427L7.13478 18.2341C7.45249 17.9799 7.61281 17.8516 7.79168 17.7603C7.95216 17.6783 8.12328 17.6186 8.2998 17.5823C8.49877 17.5415 8.70603 17.5415 9.12207 17.5415H17.8031C18.921 17.5415 19.4806 17.5415 19.908 17.3237C20.2843 17.132 20.5905 16.8257 20.7822 16.4494C21 16.022 21 15.463 21 14.3451V6.73841C21 5.6205 21 5.06071 20.7822 4.6333C20.5905 4.25698 20.2837 3.95124 19.9074 3.75949C19.4796 3.5415 18.9203 3.5415 17.8002 3.5415H6.2002C5.08009 3.5415 4.51962 3.5415 4.0918 3.75949C3.71547 3.95124 3.40973 4.25698 3.21799 4.6333C3 5.06112 3 5.62159 3 6.7417V18.2127C3 19.2784 3 19.8111 3.21846 20.0848C3.40845 20.3228 3.69644 20.4613 4.00098 20.461C4.35115 20.4606 4.76744 20.1276 5.59961 19.4618Z" stroke="#111827" stroke-width="2" stroke-linecap="round" stroke-linejoin="round"/>
</svg>