<svg width="24" height="24" viewBox="0 0 24 24" fill="none" xmlns="http://www.w3.org/2000/svg">
<path d="M3.5868 13.78C5.36623 15.5491 8.46953 18.0011 12.0002 18.0011C15.5308 18.0011 18.6335 15.5491 20.413 13.78C20.8823 13.3135 21.1177 13.0794 21.2671 12.6213C21.3738 12.2945 21.3738 11.708 21.2671 11.3811C21.1177 10.923 20.8823 10.6889 20.413 10.2223C18.6335 8.4533 15.5308 6.00122 12.0002 6.00122C8.46953 6.00122 5.36623 8.4533 3.5868 10.2223C3.11714 10.6892 2.88229 10.9229 2.7328 11.3811C2.62618 11.708 2.62618 12.2945 2.7328 12.6213C2.88229 13.0796 3.11714 13.3131 3.5868 13.78Z" stroke="#111827" stroke-width="2" stroke-linecap="round" stroke-linejoin="round"/>
<path d="M10 12.0012C10 13.1058 10.8954 14.0012 12 14.0012C13.1046 14.0012 14 13.1058 14 12.0012C14 10.8967 13.1046 10.0012 12 10.0012C10.8954 10.0012 10 10.8967 10 12.0012Z" stroke="#111827" stroke-width="2" stroke-linecap="round" stroke-linejoin="round"/>
</svg>
