<svg xmlns="http://www.w3.org/2000/svg" width="24" height="24" viewBox="0 0 24 24" fill="none">
    <path d="M3.5868 13.7801C5.36623 15.5491 8.46953 18.0012 12.0002 18.0012C15.5308 18.0012 18.6335 15.5491 20.413 13.7801C20.8823 13.3135 21.1177 13.0795 21.2671 12.6214C21.3738 12.2946 21.3738 11.708 21.2671 11.3812C21.1177 10.9231 20.8823 10.689 20.413 10.2224C18.6335 8.45336 15.5308 6.00128 12.0002 6.00128C8.46953 6.00128 5.36623 8.45337 3.5868 10.2224C3.11714 10.6893 2.88229 10.9229 2.7328 11.3812C2.62618 11.708 2.62618 12.2946 2.7328 12.6214C2.88229 13.0797 3.11714 13.3132 3.5868 13.7801Z" stroke="#111827" stroke-width="2" stroke-linecap="round" stroke-linejoin="round"/>
    <path d="M10 12.0013C10 13.1059 10.8954 14.0013 12 14.0013C13.1046 14.0013 14 13.1059 14 12.0013C14 10.8967 13.1046 10.0013 12 10.0013C10.8954 10.0013 10 10.8967 10 12.0013Z" stroke="#111827" stroke-width="2" stroke-linecap="round" stroke-linejoin="round"/>
</svg>