<svg width="24" height="24" viewBox="0 0 24 24" fill="none" xmlns="http://www.w3.org/2000/svg">
<path d="M10.7335 13.2673L15.5797 8.42114M20.5371 5.46362L16.4464 18.7582C16.0798 19.9496 15.8964 20.5456 15.5802 20.7432C15.306 20.9146 14.9664 20.9432 14.6677 20.8193C14.3233 20.6764 14.0438 20.1183 13.4861 19.003L10.8952 13.821C10.8067 13.6441 10.7624 13.5559 10.7033 13.4792C10.6508 13.4112 10.5903 13.3499 10.5222 13.2974C10.4473 13.2397 10.3606 13.1964 10.1916 13.1118L4.9977 10.5149C3.8824 9.95724 3.3247 9.67816 3.18179 9.33374C3.05785 9.03505 3.08611 8.69518 3.25747 8.42092C3.45506 8.10469 4.05101 7.92098 5.24282 7.55427L18.5374 3.46363C19.4744 3.17533 19.943 3.0313 20.2595 3.14748C20.5352 3.24868 20.7525 3.46579 20.8537 3.74146C20.9698 4.05778 20.8257 4.52622 20.5377 5.46224L20.5371 5.46362Z" stroke="#111827" stroke-width="2" stroke-linecap="round" stroke-linejoin="round"/>
</svg>
