<svg xmlns="http://www.w3.org/2000/svg" width="24" height="24" viewBox="0 0 24 24" fill="none">
    <path d="M10.7338 13.2672L15.5799 8.42108M20.5373 5.46356L16.4467 18.7582C16.0801 19.9496 15.8967 20.5456 15.5805 20.7431C15.3062 20.9145 14.9667 20.9431 14.668 20.8192C14.3236 20.6763 14.044 20.1182 13.4864 19.0029L10.8954 13.821C10.8069 13.644 10.7626 13.5559 10.7035 13.4792C10.6511 13.4111 10.5905 13.3498 10.5225 13.2974C10.4475 13.2396 10.3609 13.1963 10.1918 13.1118L4.99795 10.5148C3.88264 9.95718 3.32494 9.6781 3.18203 9.33368C3.05809 9.03499 3.08636 8.69512 3.25771 8.42086C3.4553 8.10463 4.05126 7.92092 5.24307 7.55421L18.5377 3.46356C19.4746 3.17527 19.9433 3.03124 20.2598 3.14742C20.5354 3.24862 20.7527 3.46573 20.8539 3.7414C20.9701 4.05772 20.8259 4.52615 20.5379 5.46218L20.5373 5.46356Z" stroke="#111827" stroke-width="2" stroke-linecap="round" stroke-linejoin="round"/>
</svg>