<svg xmlns="http://www.w3.org/2000/svg" width="24" height="24" viewBox="0 0 24 24" fill="none">
    <path d="M15 19.5012H9M4 13.3014V7.70142C4 6.58131 4 6.02084 4.21799 5.59302C4.40973 5.21669 4.71547 4.91095 5.0918 4.71921C5.51962 4.50122 6.08009 4.50122 7.2002 4.50122H16.8002C17.9203 4.50122 18.4796 4.50122 18.9074 4.71921C19.2837 4.91095 19.5905 5.21669 19.7822 5.59302C20 6.02042 20 6.58021 20 7.69813V13.3043C20 14.4222 20 14.9812 19.7822 15.4086C19.5905 15.7849 19.2837 16.0917 18.9074 16.2834C18.48 16.5012 17.921 16.5012 16.8031 16.5012H7.19691C6.07899 16.5012 5.5192 16.5012 5.0918 16.2834C4.71547 16.0917 4.40973 15.7849 4.21799 15.4086C4 14.9808 4 14.4215 4 13.3014ZM14.5 10.5012L10 7.50122V13.5012L14.5 10.5012Z" stroke="#111827" stroke-width="2" stroke-linecap="round" stroke-linejoin="round"/>
</svg>