<svg xmlns="http://www.w3.org/2000/svg" width="24" height="24" viewBox="0 0 24 24" fill="none">
    <path d="M14.0002 16H19.0002V21M10.0002 8H5.00024V3M19.4178 9.0034C18.8571 7.61566 17.9184 6.41304 16.7083 5.53223C15.4981 4.65141 14.0654 4.12752 12.5725 4.02051C11.0796 3.9135 9.58631 4.2274 8.26294 4.92661C6.93957 5.62582 5.83907 6.68254 5.08618 7.97612M4.58228 14.9971C5.14296 16.3848 6.08171 17.5874 7.29182 18.4682C8.50193 19.3491 9.93612 19.8723 11.429 19.9793C12.9219 20.0863 14.414 19.7725 15.7374 19.0732C17.0607 18.374 18.1605 17.3175 18.9134 16.0239" stroke="#111827" stroke-width="2" stroke-linecap="round" stroke-linejoin="round"/>
</svg>