<svg width="24" height="24" viewBox="0 0 24 24" fill="none" xmlns="http://www.w3.org/2000/svg">
<path d="M12 16.0012V10.0012M12 10.0012L9 12.0012M12 10.0012L15 12.0012M3 6.00122V16.8012C3 17.9213 3 18.481 3.21799 18.9088C3.40973 19.2851 3.71547 19.5917 4.0918 19.7834C4.5192 20.0012 5.07899 20.0012 6.19691 20.0012H17.8031C18.921 20.0012 19.48 20.0012 19.9074 19.7834C20.2837 19.5917 20.5905 19.2853 20.7822 18.909C21.0002 18.4812 21.0002 17.9211 21.0002 16.801L21.0002 9.201C21.0002 8.08089 21.0002 7.52084 20.7822 7.09302C20.5905 6.71669 20.2839 6.41095 19.9076 6.21921C19.4798 6.00122 18.9201 6.00122 17.8 6.00122H12M3 6.00122H12M3 6.00122C3 4.89665 3.89543 4.00122 5 4.00122H8.67452C9.1637 4.00122 9.40886 4.00122 9.63904 4.05648C9.84311 4.10547 10.0379 4.18649 10.2168 4.29614C10.4186 4.41979 10.5918 4.59304 10.9375 4.93872L12 6.00122" stroke="#111827" stroke-width="2" stroke-linecap="round" stroke-linejoin="round"/>
</svg>
