<svg xmlns="http://www.w3.org/2000/svg" width="24" height="24" viewBox="0 0 24 24" fill="none">
    <path d="M12 9.00128V13.0013M4.37891 15.2011C3.46947 16.7763 3.01489 17.5642 3.08281 18.2104C3.14206 18.7741 3.43792 19.2863 3.89648 19.6194C4.42204 20.0013 5.3309 20.0013 7.14853 20.0013H16.8515C18.6691 20.0013 19.5778 20.0013 20.1034 19.6194C20.5619 19.2863 20.8579 18.7741 20.9172 18.2104C20.9851 17.5642 20.5307 16.7763 19.6212 15.2011L14.7715 6.80108C13.8621 5.2259 13.4071 4.43844 12.8135 4.17413C12.2957 3.94358 11.704 3.94358 11.1862 4.17413C10.5928 4.43833 10.1381 5.2258 9.22946 6.79967L4.37891 15.2011ZM12.0508 16.0013V16.1013L11.9502 16.1015V16.0013H12.0508Z" stroke="#111827" stroke-width="2" stroke-linecap="round" stroke-linejoin="round"/>
</svg>